<mxfile host="Electron" agent="Mozilla/5.0 (Windows NT 10.0; Win64; x64) AppleWebKit/537.36 (KHTML, like Gecko) draw.io/26.2.15 Chrome/134.0.6998.205 Electron/35.2.1 Safari/537.36" version="26.2.15">
  <diagram name="Page-1" id="fYb6E_H3qMYVLdSY6md1">
    <mxGraphModel dx="690" dy="521" grid="1" gridSize="10" guides="1" tooltips="1" connect="1" arrows="1" fold="1" page="1" pageScale="1" pageWidth="827" pageHeight="1169" math="0" shadow="0">
      <root>
        <mxCell id="0" />
        <mxCell id="1" parent="0" />
        <mxCell id="Qi_Ha4F0nBiColiisZz3-1" value="Client" style="swimlane;whiteSpace=wrap;html=1;" parent="1" vertex="1">
          <mxGeometry x="60" y="80" width="100" height="120" as="geometry" />
        </mxCell>
        <mxCell id="Qi_Ha4F0nBiColiisZz3-3" value="&lt;u&gt;id_client&lt;/u&gt;&lt;div&gt;Nom&lt;/div&gt;&lt;div&gt;Prenom&lt;/div&gt;&lt;div&gt;Adresse&lt;/div&gt;&lt;div&gt;Tel&lt;/div&gt;&lt;div&gt;Email&lt;/div&gt;" style="text;html=1;align=center;verticalAlign=middle;resizable=0;points=[];autosize=1;strokeColor=none;fillColor=none;" parent="Qi_Ha4F0nBiColiisZz3-1" vertex="1">
          <mxGeometry x="15" y="20" width="70" height="100" as="geometry" />
        </mxCell>
        <mxCell id="Qi_Ha4F0nBiColiisZz3-2" value="&lt;b&gt;&lt;font style=&quot;font-size: 14px;&quot;&gt;Modèle conceptuel des données&lt;/font&gt;&lt;/b&gt;" style="text;html=1;align=center;verticalAlign=middle;resizable=0;points=[];autosize=1;strokeColor=none;fillColor=none;" parent="1" vertex="1">
          <mxGeometry x="305" width="240" height="30" as="geometry" />
        </mxCell>
        <mxCell id="Qi_Ha4F0nBiColiisZz3-4" value="Vehicules" style="swimlane;whiteSpace=wrap;html=1;" parent="1" vertex="1">
          <mxGeometry x="280" y="280" width="110" height="100" as="geometry" />
        </mxCell>
        <mxCell id="Qi_Ha4F0nBiColiisZz3-5" value="&lt;u&gt;id_vehicule&lt;/u&gt;&lt;div&gt;Nom_vehicule&lt;/div&gt;&lt;div&gt;Categorie&lt;/div&gt;&lt;div&gt;PU&lt;/div&gt;" style="text;html=1;align=center;verticalAlign=middle;resizable=0;points=[];autosize=1;strokeColor=none;fillColor=none;" parent="Qi_Ha4F0nBiColiisZz3-4" vertex="1">
          <mxGeometry x="5" y="20" width="100" height="70" as="geometry" />
        </mxCell>
        <mxCell id="Qi_Ha4F0nBiColiisZz3-6" value="Commercial" style="swimlane;whiteSpace=wrap;html=1;" parent="1" vertex="1">
          <mxGeometry x="520" y="110" width="125" height="100" as="geometry" />
        </mxCell>
        <mxCell id="Qi_Ha4F0nBiColiisZz3-7" value="&lt;u&gt;id_commercial&lt;/u&gt;&lt;div&gt;Nom_commercial&lt;/div&gt;&lt;div&gt;Prenom_commercial&lt;/div&gt;&lt;div&gt;Email_commercial&lt;/div&gt;" style="text;html=1;align=center;verticalAlign=middle;resizable=0;points=[];autosize=1;strokeColor=none;fillColor=none;" parent="Qi_Ha4F0nBiColiisZz3-6" vertex="1">
          <mxGeometry x="-5" y="30" width="130" height="70" as="geometry" />
        </mxCell>
        <mxCell id="Qi_Ha4F0nBiColiisZz3-8" value="Commande" style="swimlane;whiteSpace=wrap;html=1;" parent="1" vertex="1">
          <mxGeometry x="280" y="90" width="120" height="95" as="geometry" />
        </mxCell>
        <mxCell id="Qi_Ha4F0nBiColiisZz3-9" value="&lt;u&gt;id_commande&lt;/u&gt;&lt;div&gt;date_commande&lt;/div&gt;&lt;div&gt;statut_commande&lt;/div&gt;&lt;div&gt;&lt;br&gt;&lt;/div&gt;" style="text;html=1;align=center;verticalAlign=middle;resizable=0;points=[];autosize=1;strokeColor=none;fillColor=none;" parent="Qi_Ha4F0nBiColiisZz3-8" vertex="1">
          <mxGeometry y="25" width="120" height="70" as="geometry" />
        </mxCell>
        <mxCell id="8CyRV623JHq7PVpKxDKf-3" value="" style="endArrow=none;html=1;rounded=0;" parent="1" edge="1">
          <mxGeometry width="50" height="50" relative="1" as="geometry">
            <mxPoint x="160" y="160" as="sourcePoint" />
            <mxPoint x="280" y="160" as="targetPoint" />
          </mxGeometry>
        </mxCell>
        <mxCell id="8CyRV623JHq7PVpKxDKf-4" value="(1,n)" style="text;html=1;align=center;verticalAlign=middle;resizable=0;points=[];autosize=1;strokeColor=none;fillColor=none;" parent="1" vertex="1">
          <mxGeometry x="150" y="170" width="50" height="30" as="geometry" />
        </mxCell>
        <mxCell id="8CyRV623JHq7PVpKxDKf-5" value="passer" style="ellipse;whiteSpace=wrap;html=1;" parent="1" vertex="1">
          <mxGeometry x="180" y="150" width="70" height="20" as="geometry" />
        </mxCell>
        <mxCell id="8CyRV623JHq7PVpKxDKf-6" value="(1,1)" style="text;html=1;align=center;verticalAlign=middle;resizable=0;points=[];autosize=1;strokeColor=none;fillColor=none;" parent="1" vertex="1">
          <mxGeometry x="240" y="170" width="50" height="30" as="geometry" />
        </mxCell>
        <mxCell id="8CyRV623JHq7PVpKxDKf-7" value="" style="endArrow=none;html=1;rounded=0;" parent="1" edge="1">
          <mxGeometry width="50" height="50" relative="1" as="geometry">
            <mxPoint x="400" y="160" as="sourcePoint" />
            <mxPoint x="520" y="160" as="targetPoint" />
          </mxGeometry>
        </mxCell>
        <mxCell id="8CyRV623JHq7PVpKxDKf-8" value="gerer" style="ellipse;whiteSpace=wrap;html=1;" parent="1" vertex="1">
          <mxGeometry x="440" y="150" width="60" height="20" as="geometry" />
        </mxCell>
        <mxCell id="8CyRV623JHq7PVpKxDKf-9" value="(1,n)" style="text;html=1;align=center;verticalAlign=middle;resizable=0;points=[];autosize=1;strokeColor=none;fillColor=none;" parent="1" vertex="1">
          <mxGeometry x="480" y="170" width="50" height="30" as="geometry" />
        </mxCell>
        <mxCell id="8CyRV623JHq7PVpKxDKf-10" value="(1,1)" style="text;html=1;align=center;verticalAlign=middle;resizable=0;points=[];autosize=1;strokeColor=none;fillColor=none;" parent="1" vertex="1">
          <mxGeometry x="390" y="160" width="50" height="30" as="geometry" />
        </mxCell>
        <mxCell id="8CyRV623JHq7PVpKxDKf-11" value="" style="endArrow=none;html=1;rounded=0;exitX=0.443;exitY=-0.014;exitDx=0;exitDy=0;exitPerimeter=0;entryX=0.409;entryY=0.917;entryDx=0;entryDy=0;entryPerimeter=0;" parent="1" source="Qi_Ha4F0nBiColiisZz3-4" target="Qi_Ha4F0nBiColiisZz3-9" edge="1">
          <mxGeometry width="50" height="50" relative="1" as="geometry">
            <mxPoint x="330" y="290" as="sourcePoint" />
            <mxPoint x="330" y="210" as="targetPoint" />
          </mxGeometry>
        </mxCell>
        <mxCell id="8CyRV623JHq7PVpKxDKf-13" value="concerner" style="ellipse;whiteSpace=wrap;html=1;" parent="1" vertex="1">
          <mxGeometry x="285" y="210" width="90" height="30" as="geometry" />
        </mxCell>
        <mxCell id="8CyRV623JHq7PVpKxDKf-14" value="(0,n)" style="text;html=1;align=center;verticalAlign=middle;resizable=0;points=[];autosize=1;strokeColor=none;fillColor=none;" parent="1" vertex="1">
          <mxGeometry x="350" y="250" width="50" height="30" as="geometry" />
        </mxCell>
        <mxCell id="8CyRV623JHq7PVpKxDKf-15" value="(1,n)" style="text;html=1;align=center;verticalAlign=middle;resizable=0;points=[];autosize=1;strokeColor=none;fillColor=none;" parent="1" vertex="1">
          <mxGeometry x="350" y="180" width="50" height="30" as="geometry" />
        </mxCell>
        <mxCell id="8CyRV623JHq7PVpKxDKf-16" value="" style="endArrow=none;html=1;rounded=0;" parent="1" edge="1">
          <mxGeometry width="50" height="50" relative="1" as="geometry">
            <mxPoint x="585" y="330" as="sourcePoint" />
            <mxPoint x="585" y="210" as="targetPoint" />
          </mxGeometry>
        </mxCell>
        <mxCell id="8CyRV623JHq7PVpKxDKf-17" value="être_sur" style="ellipse;whiteSpace=wrap;html=1;" parent="1" vertex="1">
          <mxGeometry x="545" y="240" width="90" height="30" as="geometry" />
        </mxCell>
        <mxCell id="8CyRV623JHq7PVpKxDKf-18" value="(1,1)" style="text;html=1;align=center;verticalAlign=middle;resizable=0;points=[];autosize=1;strokeColor=none;fillColor=none;" parent="1" vertex="1">
          <mxGeometry x="610" y="210" width="50" height="30" as="geometry" />
        </mxCell>
        <mxCell id="8CyRV623JHq7PVpKxDKf-19" value="(1,n)" style="text;html=1;align=center;verticalAlign=middle;resizable=0;points=[];autosize=1;strokeColor=none;fillColor=none;" parent="1" vertex="1">
          <mxGeometry x="600" y="285" width="50" height="30" as="geometry" />
        </mxCell>
        <mxCell id="8CyRV623JHq7PVpKxDKf-20" value="&lt;b&gt;&lt;font style=&quot;font-size: 14px;&quot;&gt;Modèle logique de données&lt;/font&gt;&lt;/b&gt;" style="text;html=1;align=center;verticalAlign=middle;resizable=0;points=[];autosize=1;strokeColor=none;fillColor=none;" parent="1" vertex="1">
          <mxGeometry x="300" y="410" width="210" height="30" as="geometry" />
        </mxCell>
        <mxCell id="8CyRV623JHq7PVpKxDKf-21" value="Territoire" style="swimlane;whiteSpace=wrap;html=1;" parent="1" vertex="1">
          <mxGeometry x="545" y="315" width="100" height="95" as="geometry" />
        </mxCell>
        <mxCell id="8CyRV623JHq7PVpKxDKf-22" value="&lt;u&gt;id_territoire&lt;/u&gt;&lt;div&gt;nom_territoire&lt;/div&gt;&lt;div&gt;pays&lt;/div&gt;&lt;div&gt;&lt;br&gt;&lt;/div&gt;" style="text;html=1;align=center;verticalAlign=middle;resizable=0;points=[];autosize=1;strokeColor=none;fillColor=none;" parent="8CyRV623JHq7PVpKxDKf-21" vertex="1">
          <mxGeometry y="25" width="100" height="70" as="geometry" />
        </mxCell>
        <mxCell id="8CyRV623JHq7PVpKxDKf-26" value="Client" style="swimlane;whiteSpace=wrap;html=1;" parent="1" vertex="1">
          <mxGeometry x="90" y="481.25" width="105" height="125" as="geometry" />
        </mxCell>
        <mxCell id="8CyRV623JHq7PVpKxDKf-27" value="&lt;u&gt;id_client&lt;/u&gt;&lt;div&gt;Nom&lt;/div&gt;&lt;div&gt;Prenom&lt;/div&gt;&lt;div&gt;Adresse&lt;/div&gt;&lt;div&gt;Tel&lt;/div&gt;&lt;div&gt;Email&lt;/div&gt;&lt;div&gt;&lt;br&gt;&lt;/div&gt;" style="text;html=1;align=center;verticalAlign=middle;resizable=0;points=[];autosize=1;strokeColor=none;fillColor=none;" parent="8CyRV623JHq7PVpKxDKf-26" vertex="1">
          <mxGeometry x="15" y="25" width="70" height="110" as="geometry" />
        </mxCell>
        <mxCell id="8CyRV623JHq7PVpKxDKf-28" value="Commande" style="swimlane;whiteSpace=wrap;html=1;" parent="1" vertex="1">
          <mxGeometry x="240" y="476.25" width="120" height="112.5" as="geometry" />
        </mxCell>
        <mxCell id="8CyRV623JHq7PVpKxDKf-29" value="&lt;u&gt;id_commande&lt;/u&gt;&lt;div&gt;date_commande&lt;/div&gt;&lt;div&gt;statut_commande&lt;/div&gt;&lt;div&gt;#id_client&lt;/div&gt;&lt;div&gt;#id_commercial&lt;/div&gt;&lt;div&gt;&lt;br&gt;&lt;/div&gt;" style="text;html=1;align=center;verticalAlign=middle;resizable=0;points=[];autosize=1;strokeColor=none;fillColor=none;" parent="8CyRV623JHq7PVpKxDKf-28" vertex="1">
          <mxGeometry y="27.5" width="120" height="100" as="geometry" />
        </mxCell>
        <mxCell id="8CyRV623JHq7PVpKxDKf-30" value="Commercial" style="swimlane;whiteSpace=wrap;html=1;" parent="1" vertex="1">
          <mxGeometry x="400" y="482.5" width="125" height="107.5" as="geometry" />
        </mxCell>
        <mxCell id="8CyRV623JHq7PVpKxDKf-31" value="&lt;u&gt;id_commercial&lt;/u&gt;&lt;div&gt;Nom_commercial&lt;/div&gt;&lt;div&gt;Prenom_commercial&lt;/div&gt;&lt;div&gt;Email_commercial&lt;/div&gt;&lt;div&gt;#id_territoire&lt;/div&gt;" style="text;html=1;align=center;verticalAlign=middle;resizable=0;points=[];autosize=1;strokeColor=none;fillColor=none;" parent="8CyRV623JHq7PVpKxDKf-30" vertex="1">
          <mxGeometry x="-5" y="17.5" width="130" height="90" as="geometry" />
        </mxCell>
        <mxCell id="8CyRV623JHq7PVpKxDKf-32" value="Vehicules" style="swimlane;whiteSpace=wrap;html=1;" parent="1" vertex="1">
          <mxGeometry x="560" y="485" width="110" height="100" as="geometry" />
        </mxCell>
        <mxCell id="8CyRV623JHq7PVpKxDKf-33" value="&lt;u&gt;id_vehicule&lt;/u&gt;&lt;div&gt;Nom_vehicule&lt;/div&gt;&lt;div&gt;Categorie&lt;/div&gt;&lt;div&gt;PU&lt;/div&gt;" style="text;html=1;align=center;verticalAlign=middle;resizable=0;points=[];autosize=1;strokeColor=none;fillColor=none;" parent="8CyRV623JHq7PVpKxDKf-32" vertex="1">
          <mxGeometry x="5" y="20" width="100" height="70" as="geometry" />
        </mxCell>
        <mxCell id="8CyRV623JHq7PVpKxDKf-34" value="Territoire" style="swimlane;whiteSpace=wrap;html=1;" parent="1" vertex="1">
          <mxGeometry x="690" y="493.75" width="100" height="100" as="geometry" />
        </mxCell>
        <mxCell id="8CyRV623JHq7PVpKxDKf-35" value="&lt;u&gt;id_territoire&lt;/u&gt;&lt;div&gt;nom_territoire&lt;/div&gt;&lt;div&gt;pays&lt;/div&gt;&lt;div&gt;&lt;br&gt;&lt;/div&gt;" style="text;html=1;align=center;verticalAlign=middle;resizable=0;points=[];autosize=1;strokeColor=none;fillColor=none;" parent="8CyRV623JHq7PVpKxDKf-34" vertex="1">
          <mxGeometry y="30" width="100" height="70" as="geometry" />
        </mxCell>
        <mxCell id="8CyRV623JHq7PVpKxDKf-36" value="concerner" style="swimlane;whiteSpace=wrap;html=1;" parent="1" vertex="1">
          <mxGeometry x="240" y="620" width="105" height="80" as="geometry" />
        </mxCell>
        <mxCell id="8CyRV623JHq7PVpKxDKf-37" value="#&lt;u&gt;id_commande&lt;/u&gt;&lt;div&gt;#i&lt;u&gt;d_vehicule&lt;/u&gt;&lt;/div&gt;&lt;div&gt;&lt;br&gt;&lt;/div&gt;" style="text;html=1;align=center;verticalAlign=middle;resizable=0;points=[];autosize=1;strokeColor=none;fillColor=none;" parent="8CyRV623JHq7PVpKxDKf-36" vertex="1">
          <mxGeometry x="-2.5" y="20" width="110" height="60" as="geometry" />
        </mxCell>
        <mxCell id="73eiylYh2Dtjgsg1S2zY-1" value="create table client(&lt;div&gt;&amp;nbsp; &amp;nbsp; &amp;nbsp; &amp;nbsp; &amp;nbsp; &amp;nbsp; &amp;nbsp; &amp;nbsp; &amp;nbsp; &amp;nbsp; &amp;nbsp; &amp;nbsp; &amp;nbsp; &amp;nbsp; &amp;nbsp; &amp;nbsp; &amp;nbsp; &amp;nbsp; &amp;nbsp; &amp;nbsp; &amp;nbsp;id_client int primary key,&lt;span style=&quot;background-color: transparent; color: light-dark(rgb(0, 0, 0), rgb(255, 255, 255));&quot;&gt;&amp;nbsp; nom&amp;nbsp; varchar(50),&lt;/span&gt;&lt;span style=&quot;background-color: transparent; color: light-dark(rgb(0, 0, 0), rgb(255, 255, 255));&quot;&gt;&amp;nbsp;prenom varchar(50),&lt;/span&gt;&lt;span style=&quot;background-color: transparent; color: light-dark(rgb(0, 0, 0), rgb(255, 255, 255));&quot;&gt;email varchar(36),&lt;/span&gt;&lt;span style=&quot;background-color: transparent; color: light-dark(rgb(0, 0, 0), rgb(255, 255, 255));&quot;&gt;&amp;nbsp;&amp;nbsp;&lt;/span&gt;&lt;/div&gt;&lt;div&gt;&lt;span style=&quot;background-color: transparent; color: light-dark(rgb(0, 0, 0), rgb(255, 255, 255));&quot;&gt;adresse varchar(30),tel varchar(18));&lt;/span&gt;&lt;/div&gt;&lt;div&gt;&lt;br&gt;&lt;/div&gt;" style="text;html=1;align=center;verticalAlign=middle;resizable=0;points=[];autosize=1;strokeColor=none;fillColor=none;" parent="1" vertex="1">
          <mxGeometry x="150" y="760" width="600" height="70" as="geometry" />
        </mxCell>
        <mxCell id="73eiylYh2Dtjgsg1S2zY-2" value="create table vehicule(&lt;div&gt;&amp;nbsp; &amp;nbsp; &amp;nbsp; &amp;nbsp; &amp;nbsp; &amp;nbsp; &amp;nbsp; &amp;nbsp; &amp;nbsp; &amp;nbsp; &amp;nbsp; &amp;nbsp; &amp;nbsp; &amp;nbsp; &amp;nbsp; &amp;nbsp; &amp;nbsp; &amp;nbsp; &amp;nbsp; &amp;nbsp; &amp;nbsp;id_vehicule int primary key,&lt;span style=&quot;background-color: transparent; color: light-dark(rgb(0, 0, 0), rgb(255, 255, 255));&quot;&gt;&amp;nbsp; nom_vehicule varchar(50),&lt;/span&gt;&lt;span style=&quot;background-color: transparent; color: light-dark(rgb(0, 0, 0), rgb(255, 255, 255));&quot;&gt;&amp;nbsp;categorie varchar(50),PU&lt;/span&gt;&lt;span style=&quot;background-color: transparent; color: light-dark(rgb(0, 0, 0), rgb(255, 255, 255));&quot;&gt;&amp;nbsp;int)&lt;/span&gt;&lt;span style=&quot;background-color: transparent; color: light-dark(rgb(0, 0, 0), rgb(255, 255, 255));&quot;&gt;&amp;nbsp;&lt;/span&gt;&lt;/div&gt;&lt;div&gt;&lt;br&gt;&lt;/div&gt;" style="text;html=1;align=center;verticalAlign=middle;resizable=0;points=[];autosize=1;strokeColor=none;fillColor=none;" parent="1" vertex="1">
          <mxGeometry x="140" y="830" width="610" height="60" as="geometry" />
        </mxCell>
        <mxCell id="73eiylYh2Dtjgsg1S2zY-3" value="create table territoire(&lt;div&gt;&amp;nbsp; &amp;nbsp; &amp;nbsp; &amp;nbsp; &amp;nbsp; &amp;nbsp; &amp;nbsp; &amp;nbsp; &amp;nbsp; &amp;nbsp; &amp;nbsp; &amp;nbsp; &amp;nbsp; &amp;nbsp; &amp;nbsp; &amp;nbsp; &amp;nbsp; &amp;nbsp; &amp;nbsp; &amp;nbsp; &amp;nbsp;id_territoire int primary key,&lt;span style=&quot;background-color: transparent; color: light-dark(rgb(0, 0, 0), rgb(255, 255, 255));&quot;&gt;&amp;nbsp; nom_territoire&amp;nbsp; varchar(50),&lt;/span&gt;&lt;span style=&quot;background-color: transparent; color: light-dark(rgb(0, 0, 0), rgb(255, 255, 255));&quot;&gt;&amp;nbsp;pays(50)&lt;/span&gt;&lt;span style=&quot;background-color: transparent; color: light-dark(rgb(0, 0, 0), rgb(255, 255, 255));&quot;&gt;);&lt;/span&gt;&lt;/div&gt;&lt;div&gt;&lt;br&gt;&lt;/div&gt;" style="text;html=1;align=center;verticalAlign=middle;resizable=0;points=[];autosize=1;strokeColor=none;fillColor=none;" parent="1" vertex="1">
          <mxGeometry x="200" y="880" width="510" height="60" as="geometry" />
        </mxCell>
        <mxCell id="73eiylYh2Dtjgsg1S2zY-4" value="&lt;div&gt;&lt;br&gt;&lt;/div&gt;" style="text;html=1;align=center;verticalAlign=middle;resizable=0;points=[];autosize=1;strokeColor=none;fillColor=none;" parent="1" vertex="1">
          <mxGeometry x="440" y="950" width="20" height="30" as="geometry" />
        </mxCell>
        <mxCell id="oU_f84Fh4Lh0J6jMsSRA-1" value="create table commercial(&lt;div&gt;id_commercial int,nom_commercial varchar(30),prenom_commercial varchar(28), email_commercial varchar(20),id_territoire int,&lt;/div&gt;&lt;div&gt;foreign key(id_territoire) references territoire(id_territoire));&lt;/div&gt;" style="text;html=1;align=center;verticalAlign=middle;resizable=0;points=[];autosize=1;strokeColor=none;fillColor=none;" parent="1" vertex="1">
          <mxGeometry x="95" y="935" width="700" height="60" as="geometry" />
        </mxCell>
        <mxCell id="oU_f84Fh4Lh0J6jMsSRA-2" value="create table commande(&lt;div&gt;id_commande int,date_commande date,statut_commande,id_client int, id_commercial int, foreign key(id_client) references client(id_client),&lt;/div&gt;&lt;div&gt;foreign key(id_commercial) references commercial(id_commercial));&lt;/div&gt;" style="text;html=1;align=center;verticalAlign=middle;resizable=0;points=[];autosize=1;strokeColor=none;fillColor=none;" parent="1" vertex="1">
          <mxGeometry x="67" y="995" width="760" height="60" as="geometry" />
        </mxCell>
        <mxCell id="TDrcfQukSe9ZXPqCTX2N-1" value="create table concerner(&lt;div&gt;id_commande int,id_vehicule int,primary key(id_commande,id_vehicule),foreign key(id_commande) references commande(id_commande),&lt;/div&gt;&lt;div&gt;foreign key(id_vehicule) references vehicule(id_vehicule));&amp;nbsp;&lt;/div&gt;&lt;div&gt;&lt;br&gt;&lt;/div&gt;&lt;div&gt;&lt;br&gt;&lt;/div&gt;" style="text;html=1;align=center;verticalAlign=middle;resizable=0;points=[];autosize=1;strokeColor=none;fillColor=none;" parent="1" vertex="1">
          <mxGeometry x="50" y="1060" width="760" height="90" as="geometry" />
        </mxCell>
        <mxCell id="TDrcfQukSe9ZXPqCTX2N-3" value="&lt;font style=&quot;font-size: 14px;&quot;&gt;&lt;b&gt;Moddèle physique de données&lt;/b&gt;&lt;/font&gt;" style="text;html=1;align=center;verticalAlign=middle;resizable=0;points=[];autosize=1;strokeColor=none;fillColor=none;" parent="1" vertex="1">
          <mxGeometry x="350" y="720" width="230" height="30" as="geometry" />
        </mxCell>
        <mxCell id="MOZGWotijMwnthC4Ieod-1" value="&lt;font style=&quot;font-size: 14px;&quot;&gt;&lt;b&gt;Modélisation de l&#39;entrepôt de données&lt;/b&gt;&lt;/font&gt;" style="text;html=1;align=center;verticalAlign=middle;resizable=0;points=[];autosize=1;strokeColor=none;fillColor=none;" parent="1" vertex="1">
          <mxGeometry x="300" y="1180" width="280" height="30" as="geometry" />
        </mxCell>
        <mxCell id="MOZGWotijMwnthC4Ieod-2" value="Dim_client" style="swimlane;whiteSpace=wrap;html=1;" parent="1" vertex="1">
          <mxGeometry x="370" y="1230" width="110" height="130" as="geometry" />
        </mxCell>
        <mxCell id="MOZGWotijMwnthC4Ieod-4" value="&lt;u&gt;id_client&lt;/u&gt;&lt;div&gt;Nom&lt;/div&gt;&lt;div&gt;Prenom&lt;/div&gt;&lt;div&gt;Adresse&lt;/div&gt;&lt;div&gt;Tel&lt;/div&gt;&lt;div&gt;Email&lt;/div&gt;&lt;div&gt;&lt;br&gt;&lt;/div&gt;" style="text;html=1;align=center;verticalAlign=middle;resizable=0;points=[];autosize=1;strokeColor=none;fillColor=none;" parent="MOZGWotijMwnthC4Ieod-2" vertex="1">
          <mxGeometry x="10" y="30" width="70" height="110" as="geometry" />
        </mxCell>
        <mxCell id="MOZGWotijMwnthC4Ieod-5" value="Dim_Commercial" style="swimlane;whiteSpace=wrap;html=1;" parent="1" vertex="1">
          <mxGeometry x="620" y="1440" width="120" height="100" as="geometry" />
        </mxCell>
        <mxCell id="MOZGWotijMwnthC4Ieod-6" value="&lt;u&gt;id_commercial&lt;/u&gt;&lt;div&gt;Nom_commercial&lt;/div&gt;&lt;div&gt;Prenom_commercial&lt;/div&gt;&lt;div&gt;Email_commercial&lt;/div&gt;" style="text;html=1;align=center;verticalAlign=middle;resizable=0;points=[];autosize=1;strokeColor=none;fillColor=none;" parent="MOZGWotijMwnthC4Ieod-5" vertex="1">
          <mxGeometry x="-5" y="27.5" width="130" height="70" as="geometry" />
        </mxCell>
        <mxCell id="MOZGWotijMwnthC4Ieod-7" value="fait_vente" style="swimlane;whiteSpace=wrap;html=1;" parent="1" vertex="1">
          <mxGeometry x="360" y="1440" width="154" height="130" as="geometry" />
        </mxCell>
        <mxCell id="dZbcHMRoMT2nrsJEqEqF-1" value="#id_client&lt;div&gt;#id_commercial&lt;/div&gt;&lt;div&gt;#id_vehicule&lt;/div&gt;" style="text;html=1;align=center;verticalAlign=middle;resizable=0;points=[];autosize=1;strokeColor=none;fillColor=none;" vertex="1" parent="MOZGWotijMwnthC4Ieod-7">
          <mxGeometry x="10" y="32.5" width="110" height="60" as="geometry" />
        </mxCell>
        <mxCell id="dZbcHMRoMT2nrsJEqEqF-2" value="Dim_Vehicule" style="swimlane;whiteSpace=wrap;html=1;" vertex="1" parent="1">
          <mxGeometry x="130" y="1460" width="110" height="100" as="geometry" />
        </mxCell>
        <mxCell id="dZbcHMRoMT2nrsJEqEqF-3" value="&lt;u&gt;id_vehicule&lt;/u&gt;&lt;div&gt;Nom_vehicule&lt;/div&gt;&lt;div&gt;Categorie&lt;/div&gt;&lt;div&gt;PU&lt;/div&gt;" style="text;html=1;align=center;verticalAlign=middle;resizable=0;points=[];autosize=1;strokeColor=none;fillColor=none;" vertex="1" parent="dZbcHMRoMT2nrsJEqEqF-2">
          <mxGeometry x="5" y="20" width="100" height="70" as="geometry" />
        </mxCell>
        <mxCell id="dZbcHMRoMT2nrsJEqEqF-4" value="Dim_Territoire" style="swimlane;whiteSpace=wrap;html=1;" vertex="1" parent="1">
          <mxGeometry x="385" y="1640" width="100" height="100" as="geometry" />
        </mxCell>
        <mxCell id="dZbcHMRoMT2nrsJEqEqF-5" value="&lt;u&gt;id_territoire&lt;/u&gt;&lt;div&gt;nom_territoire&lt;/div&gt;&lt;div&gt;pays&lt;/div&gt;&lt;div&gt;&lt;br&gt;&lt;/div&gt;" style="text;html=1;align=center;verticalAlign=middle;resizable=0;points=[];autosize=1;strokeColor=none;fillColor=none;" vertex="1" parent="dZbcHMRoMT2nrsJEqEqF-4">
          <mxGeometry y="30" width="100" height="70" as="geometry" />
        </mxCell>
        <mxCell id="dZbcHMRoMT2nrsJEqEqF-6" value="" style="endArrow=none;html=1;rounded=0;exitX=0.58;exitY=-0.02;exitDx=0;exitDy=0;exitPerimeter=0;" edge="1" parent="1" source="dZbcHMRoMT2nrsJEqEqF-4">
          <mxGeometry width="50" height="50" relative="1" as="geometry">
            <mxPoint x="390" y="1620" as="sourcePoint" />
            <mxPoint x="443" y="1570" as="targetPoint" />
          </mxGeometry>
        </mxCell>
        <mxCell id="dZbcHMRoMT2nrsJEqEqF-7" value="" style="endArrow=none;html=1;rounded=0;" edge="1" parent="1">
          <mxGeometry width="50" height="50" relative="1" as="geometry">
            <mxPoint x="240" y="1520" as="sourcePoint" />
            <mxPoint x="360" y="1520" as="targetPoint" />
          </mxGeometry>
        </mxCell>
        <mxCell id="dZbcHMRoMT2nrsJEqEqF-8" value="" style="endArrow=none;html=1;rounded=0;entryX=0.038;entryY=0.75;entryDx=0;entryDy=0;entryPerimeter=0;" edge="1" parent="1">
          <mxGeometry width="50" height="50" relative="1" as="geometry">
            <mxPoint x="514" y="1520" as="sourcePoint" />
            <mxPoint x="613.94" y="1520" as="targetPoint" />
          </mxGeometry>
        </mxCell>
        <mxCell id="dZbcHMRoMT2nrsJEqEqF-9" value="" style="endArrow=none;html=1;rounded=0;" edge="1" parent="1">
          <mxGeometry width="50" height="50" relative="1" as="geometry">
            <mxPoint x="440" y="1440" as="sourcePoint" />
            <mxPoint x="440" y="1360" as="targetPoint" />
          </mxGeometry>
        </mxCell>
        <mxCell id="dZbcHMRoMT2nrsJEqEqF-10" value="Dim_Temps" style="swimlane;whiteSpace=wrap;html=1;" vertex="1" parent="1">
          <mxGeometry x="120" y="1310" width="110" height="100" as="geometry" />
        </mxCell>
        <mxCell id="dZbcHMRoMT2nrsJEqEqF-11" value="&lt;u&gt;cle_date&lt;/u&gt;&lt;div&gt;annee&lt;/div&gt;&lt;div&gt;mois&lt;/div&gt;&lt;div&gt;jours&lt;/div&gt;&lt;div&gt;est_weekend&lt;/div&gt;" style="text;html=1;align=center;verticalAlign=middle;resizable=0;points=[];autosize=1;strokeColor=none;fillColor=none;" vertex="1" parent="dZbcHMRoMT2nrsJEqEqF-10">
          <mxGeometry x="10" y="20" width="90" height="90" as="geometry" />
        </mxCell>
        <mxCell id="dZbcHMRoMT2nrsJEqEqF-12" value="" style="endArrow=none;html=1;rounded=0;" edge="1" parent="1">
          <mxGeometry width="50" height="50" relative="1" as="geometry">
            <mxPoint x="230" y="1360" as="sourcePoint" />
            <mxPoint x="360" y="1490" as="targetPoint" />
          </mxGeometry>
        </mxCell>
      </root>
    </mxGraphModel>
  </diagram>
</mxfile>
